<svg width="580" height="320" viewBox="0 0 580 320" fill="none" xmlns="http://www.w3.org/2000/svg"><g clip-path="url(#clip0)"><path d="M91 285.5L319 151m70 77.5l91-54.5" stroke="#04F" stroke-width="1.5" stroke-linecap="round" stroke-linejoin="round" stroke-dasharray="0.1 5"/><path d="M461.975 155.58l29.77-17.183a16.71 16.71 0 0115.073 0l29.907 17.266c2.059 1.189 2.975 2.678 2.975 4.063 0 1.386-.916 2.875-2.975 4.063l-29.77 17.183a16.72 16.72 0 01-15.073 0l-29.907-17.267c-2.059-1.188-2.975-2.677-2.975-4.063 0-1.385.916-2.874 2.975-4.062z" stroke="#04F" stroke-linecap="round"/><path opacity=".4" d="M540.606 151.761v-10.974l-1.991-1.099c-.563 3.387-4.561 5.629-7.837 6.099l-22.791 13.326-9.938 3.59-31.741-16.383.736-.423c-2.711-1.27-4.185-4.171-5.642-6.804l-2.132 1.269-1.27.361v11.068a4.707 4.707 0 002.79 3.904l31.788 18.359a14.976 14.976 0 0013.513 0l31.725-18.327a4.703 4.703 0 002.79-3.826.74.74 0 000-.188v.048z" fill="#101827"/><path d="M540.606 142.073v-7.193l-1.991-1.113c-.563 3.397-4.425 6.725-7.701 7.193l-29.001 16.427-4.35.483-31.255-17.457-4.906-2.835c-2.713-1.27 1.457-1.759 0-4.408l-2.132 1.285-1.27.345v7.4a4.706 4.706 0 002.79 3.888l31.788 18.375a14.976 14.976 0 0013.513 0l31.725-18.375a4.694 4.694 0 002.79-3.825.672.672 0 000-.19z" fill="#101827"/><path d="M532.818 133.622l-31.804-18.358a4.767 4.767 0 00-4.327 0l-31.788 18.358c-.799.455-1.066 1.113-.799 1.699.181-.34.459-.618.799-.8l31.741-18.358a4.788 4.788 0 014.327 0l31.804 18.358c.336.182.609.461.784.8.313-.586.048-1.247-.737-1.699z" fill="#2C3548"/><path d="M537.853 138.78l-31.789 18.359a14.975 14.975 0 01-13.512 0l-31.788-18.375a4.969 4.969 0 01-1.782-1.403 4.977 4.977 0 01-.977-2.046 4.492 4.492 0 002.759 4.358l31.788 18.359a14.963 14.963 0 0013.512 0l31.789-18.364a4.494 4.494 0 002.758-4.358 4.977 4.977 0 01-2.758 3.465v.005z" fill="#2C3548"/><path d="M493.502 157.857l-32.99-19.181c-3.349-1.931-3.349-5.106 0-7.053l32.99-19.162a13.324 13.324 0 0112.13 0l32.99 19.162c3.35 1.947 3.35 5.122 0 7.053l-32.974 19.181a13.356 13.356 0 01-12.146 0zm9.236-43.708a6.977 6.977 0 00-6.342 0l-32.99 19.162a1.97 1.97 0 000 3.698l32.99 19.162a6.99 6.99 0 006.342 0l32.99-19.162a1.968 1.968 0 000-3.696l-32.99-19.164z" fill="#2C3548"/><path d="M502.627 114.149a6.986 6.986 0 00-6.341 0l-32.99 19.162a1.972 1.972 0 00-1.205 2.44 1.97 1.97 0 001.205 1.258l32.99 19.162a6.987 6.987 0 006.341 0l32.99-19.162a1.963 1.963 0 00.938-2.976 1.957 1.957 0 00-.938-.72l-32.99-19.164z" fill="#2C3548"/><path opacity=".4" d="M501.02 115.264a4.77 4.77 0 00-4.327 0l-31.788 18.358c-1.207.69-1.207 1.818 0 2.493l31.741 18.374a4.775 4.775 0 004.327 0l31.804-18.374a1.323 1.323 0 00.892-1.246 1.32 1.32 0 00-.892-1.247l-31.757-18.358z" fill="#101827"/><path fill-rule="evenodd" clip-rule="evenodd" d="M526.469 139.699l-25.555-14.773a4.78 4.78 0 00-4.326 0L471 139.704l25.541 14.786a4.786 4.786 0 004.326 0l25.602-14.791z" fill="#333C4F" fill-opacity=".1"/><path opacity=".4" fill-rule="evenodd" clip-rule="evenodd" d="M520.009 143.23l-12.587-7.266a17.217 17.217 0 00-15.574 0L478 143.956l.863.499 13.85-7.992a15.303 15.303 0 0113.843 0l12.588 7.266.865-.499z" fill="#FDC201" fill-opacity=".2"/><path d="M286 143.229V38.299a10.83 10.83 0 014.888-8.465l47.63-28.183c1.338-.772 2.488-.814 3.286-.353.798.46 1.338 1.476 1.338 3.023v104.93a10.833 10.833 0 01-4.887 8.466l-47.631 28.182c-1.338.773-2.489.814-3.287.353-.798-.46-1.338-1.476-1.337-3.023z" stroke="#04F" stroke-linecap="round"/><path d="M291.274 145.866V40.936a10.83 10.83 0 014.887-8.465l47.631-28.183c1.338-.772 2.488-.814 3.286-.353.798.46 1.338 1.476 1.338 3.023v104.93a10.833 10.833 0 01-4.888 8.466l-47.63 28.182c-1.338.773-2.489.814-3.287.354-.798-.461-1.338-1.477-1.337-3.024z" stroke="#04F" stroke-linecap="round"/><path d="M296.548 148.503V43.573a10.83 10.83 0 014.887-8.465l47.631-28.183c1.338-.772 2.488-.814 3.286-.353.798.46 1.338 1.476 1.338 3.023v104.93a10.833 10.833 0 01-4.888 8.466l-47.63 28.182c-1.338.773-2.489.814-3.287.354-.798-.461-1.338-1.477-1.337-3.024z" stroke="#04F" stroke-linecap="round"/><path d="M301.822 151.14V46.21a10.83 10.83 0 014.887-8.465L354.34 9.562c1.338-.772 2.488-.814 3.286-.353.798.46 1.338 1.476 1.337 3.023l.001 104.93a10.845 10.845 0 01-1.435 4.816 10.845 10.845 0 01-3.453 3.65l-47.63 28.182c-1.338.773-2.489.814-3.287.353-.798-.46-1.338-1.476-1.337-3.023z" stroke="#04F" stroke-linecap="round"/><path d="M307.096 153.777V48.847a10.83 10.83 0 014.887-8.465l47.63-28.183c1.339-.772 2.489-.814 3.287-.353.798.46 1.338 1.476 1.337 3.023l.001 104.93a10.845 10.845 0 01-1.435 4.816 10.845 10.845 0 01-3.453 3.65l-47.63 28.182c-1.338.773-2.489.814-3.287.353-.798-.46-1.338-1.476-1.337-3.023z" stroke="#04F" stroke-linecap="round"/><path d="M312.37 156.414V51.484a10.83 10.83 0 014.887-8.465l47.63-28.183c1.339-.772 2.489-.814 3.287-.353.798.46 1.338 1.476 1.337 3.023l.001 104.93a10.845 10.845 0 01-1.435 4.816 10.845 10.845 0 01-3.453 3.65l-47.63 28.182c-1.338.773-2.489.814-3.287.353-.798-.46-1.338-1.476-1.337-3.023z" stroke="#04F" stroke-linecap="round"/><path d="M317.644 159.051V54.121a10.83 10.83 0 014.887-8.465l47.63-28.183c1.339-.772 2.489-.814 3.287-.353.798.46 1.338 1.476 1.337 3.023l.001 104.93a10.845 10.845 0 01-1.435 4.816 10.845 10.845 0 01-3.453 3.65l-47.63 28.182c-1.338.773-2.489.814-3.287.353-.798-.46-1.338-1.476-1.337-3.023z" stroke="#04F" stroke-linecap="round"/><path d="M363 142.703l-42.497 24.541v-10.371L363 132.333v10.37z" fill="#101827"/><path d="M320.503 107.798L278 132.332l42.503 24.541L363 132.332l-42.497-24.534z" fill="#2C3548"/><path opacity=".65" d="M280.123 131.109l40.381 23.317 40.38-23.317-40.38-23.311-40.381 23.311z" fill="#101827"/><path d="M278 143.109l42.503 24.135v-10.371L278 132.333v10.776z" fill="#242B38"/><path d="M324.621 160.754l-1.17.669v-1.346l1.17-.669v1.346zm1.879-1.089l-1.163.669v-1.345l1.163-.669v1.345zm1.886-1.088l-1.162.669v-1.345l1.162-.67v1.346z" fill="#FDC201"/><path d="M363 127.735l-42.497 24.541v-10.371L363 117.371v10.364z" fill="#101827"/><path d="M320.503 92.83L278 117.372l42.503 24.534L363 117.371l-42.497-24.54z" fill="#2C3548"/><path opacity=".65" d="M280.123 116.148l40.381 23.317 40.38-23.317-40.38-23.317-40.381 23.317z" fill="#101827"/><path d="M278 128.147l42.503 24.129v-10.371L278 117.371v10.776z" fill="#242B38"/><path d="M324.621 145.786l-1.17.676v-1.346l1.17-.676v1.346zm1.879-1.089l-1.163.676v-1.345l1.163-.676v1.345zm1.886-1.088l-1.162.676v-1.345l1.162-.676v1.345z" fill="#FDC201"/><path d="M363 112.774l-42.497 24.534v-10.364L363 102.403v10.371z" fill="#101827"/><path d="M320.503 77.863L278 102.403l42.503 24.541L363 102.403l-42.497-24.54z" fill="#2C3548"/><path opacity=".65" d="M280.123 101.18l40.381 23.317 40.38-23.317-40.38-23.317-40.381 23.317z" fill="#101827"/><path d="M278 113.18l42.503 24.128v-10.364L278 102.403v10.777z" fill="#242B38"/><path d="M324.621 130.825l-1.17.669v-1.345l1.17-.67v1.346zm1.879-1.089l-1.163.67v-1.346l1.163-.676v1.352zm1.886-1.088l-1.162.669v-1.345l1.162-.676v1.352z" fill="#FDC201"/><path d="M363 97.806l-42.497 24.54v-10.37L363 87.442v10.364z" fill="#101827"/><path d="M320.503 62.901L278 87.442l42.503 24.534L363 87.442l-42.497-24.54z" fill="#2C3548"/><path opacity=".65" d="M280.123 86.218l40.381 23.311 40.38-23.31-40.38-23.318-40.381 23.317z" fill="#101827"/><path d="M278 98.218l42.503 24.128v-10.37L278 87.442v10.776z" fill="#242B38"/><path d="M324.621 115.856l-1.17.676v-1.352l1.17-.669v1.345zm1.879-1.088l-1.163.676v-1.346l1.163-.676v1.346zm1.886-1.089l-1.162.676v-1.352l1.162-.669v1.345z" fill="#FDC201"/><path d="M363 82.838l-42.497 24.541V97.015L363 72.475v10.363z" fill="#101827"/><path d="M320.503 47.934L278 72.474l42.503 24.541L363 72.475l-42.497-24.541z" fill="#2C3548"/><path opacity=".65" d="M280.123 71.25l40.381 23.318 40.38-23.317-40.38-23.317-40.381 23.317z" fill="#101827"/><path d="M278 83.25l42.503 24.129V97.015L278 72.475V83.25z" fill="#242B38"/><path d="M324.621 100.896l-1.17.669v-1.345l1.17-.677v1.353zM326.5 99.8l-1.163.676v-1.345l1.163-.676V99.8zm1.886-1.081l-1.162.67v-1.346l1.162-.676v1.352z" fill="#FDC201"/><path d="M363 67.877l-42.497 24.54v-10.37L363 57.513v10.364z" fill="#101827"/><path d="M320.503 32.973L278 57.513l42.503 24.534L363 57.513l-42.497-24.54z" fill="#2C3548"/><path opacity=".65" d="M280.123 56.283L320.504 79.6l40.38-23.317-40.38-23.31-40.381 23.31z" fill="#101827"/><path d="M278 68.29l42.503 24.128v-10.37L278 57.512V68.29z" fill="#242B38"/><path d="M324.621 85.928l-1.17.676v-1.345l1.17-.677v1.346zm1.879-1.088l-1.163.669v-1.346l1.163-.669v1.346zm1.886-1.089l-1.162.676v-1.352l1.162-.67v1.346z" fill="#FDC201"/><path d="M363 52.916L320.503 77.45V67.086L363 42.546v10.37z" fill="#101827"/><path d="M320.503 18.005L278 42.545l42.503 24.541L363 42.546l-42.497-24.541z" fill="#2C3548"/><path opacity=".65" d="M280.123 41.322l40.381 23.317 40.38-23.317-40.38-23.317-40.381 23.317z" fill="#101827"/><path d="M278 53.322l42.503 24.128V67.086L278 42.546v10.776z" fill="#242B38"/><path d="M324.621 70.96l-1.17.676v-1.345l1.17-.676v1.345zm1.879-1.088l-1.163.676v-1.346l1.163-.676v1.346zm1.886-1.089l-1.162.676v-1.345l1.162-.676v1.345z" fill="#FDC201"/><path d="M363 37.949l-42.497 24.534V52.119L363 27.579v10.37z" fill="#101827"/><path d="M320.503 3.044L278 27.578l42.503 24.54L363 27.579 320.503 3.044z" fill="#2C3548"/><path d="M278 38.354l42.503 24.129V52.119L278 27.579v10.775z" fill="#242B38"/><path d="M324.621 56l-1.17.668v-1.345l1.17-.67V56zm1.879-1.09l-1.163.67v-1.345l1.163-.67v1.346zm1.886-1.088l-1.162.67v-1.346l1.162-.669v1.345z" fill="#FDC201"/><path d="M383.58 106.78L337 79.89 383.58 53l46.58 26.89-46.58 26.89zm0 103.23L337 183.12l46.58-26.9 46.58 26.9-46.58 26.89z" fill="#2C3548"/><path d="M430.16 79.89v103.23l-46.58 26.89V106.78l46.58-26.89z" fill="#101827"/><path d="M337 79.89v103.23l46.58 26.89V106.78L337 79.89z" fill="#242B38"/><path d="M423.17 104.83v2.73l-32.6 18.82v-2.73l32.6-18.82zm0 11.54v2.73l-32.6 18.82v-2.73l32.6-18.82zm0 11.53v2.73l-32.6 18.83v-2.73l32.6-18.83zm0 11.54v2.73l-32.6 18.82v-2.73l32.6-18.82zm0 11.54v2.72l-32.6 18.83v-2.73l32.6-18.82zm0 11.53v2.73l-32.6 18.82v-2.72l32.6-18.83z" fill="#1D2330"/><path d="M383.58 97.34l-33.79-19.51 33.79-19.51 33.8 19.51-33.8 19.51z" fill="#2C3548"/><path d="M417.38 77.83v2.37l-33.8 19.51v-2.37l33.8-19.51z" fill="#101827"/><path d="M349.79 77.83v2.37l33.79 19.51v-2.37l-33.79-19.51z" fill="#242B38"/><path d="M370.469 78.14l-1.49-.86.12-.7 13.89-8.08 1.92.92-.36.59-14.08 8.13z" fill="#1D2330"/><path d="M383.06 69.15l1.49.86.97-.55-2.46-1.42-15.05 8.68.97.56 14.08-8.13z" fill="#101827"/><path d="M375.02 80.76l-1.5-.87.12-.7 13.89-8.08 1.93.92-.36.6-14.08 8.13z" fill="#1D2330"/><path d="M387.6 71.77l1.5.86.96-.56-2.46-1.42-15.04 8.69.96.56 14.08-8.13z" fill="#101827"/><path d="M379.56 83.37l-1.5-.86.13-.7 13.88-8.08 1.93.91-.36.6-14.08 8.13z" fill="#1D2330"/><path d="M392.14 74.38l1.5.86.96-.55-2.46-1.42-15.04 8.68.97.56 14.07-8.13z" fill="#101827"/><path d="M384.099 85.99l-1.49-.87.12-.7 13.88-8.08 1.93.92-.36.6-14.08 8.13z" fill="#1D2330"/><path d="M396.69 77l1.49.86.97-.56-2.46-1.42-15.05 8.69.97.55L396.69 77z" fill="#101827"/><path d="M258.87 93.496L216 68.756 258.87 44l42.871 24.755-42.871 24.74zm0 116.92L216 185.677l42.87-83.83 42.871 83.83-42.871 24.739z" fill="#2C3548"/><path d="M301.745 68.755v116.921l-42.875 24.74V93.496l42.875-24.741z" fill="#101827"/><path d="M216.004 68.755v116.921l42.866 24.74V93.496l-42.866-24.741z" fill="#242B38"/><path d="M268.061 100.538v-2.509l-2.76 1.589v2.508l2.76-1.588zm0 10.613v-2.507l-2.76 1.587v2.508l2.76-1.588zm0 8.106v2.509l-2.76 1.604v-2.524l2.76-1.589zm0 13.138v-2.518l-2.76 1.598v2.509l2.76-1.589zm0 8.106v2.508l-2.76 1.588v-2.508l2.76-1.588zm0 13.122v-2.509l-2.76 1.589v2.524l2.76-1.604zm0 8.106v2.524l-2.76 1.588v-2.509l2.76-1.603zm0 13.138v-2.509l-2.76 1.589v2.508l2.76-1.588zm0 8.106v2.508l-2.76 1.588v-2.509l2.76-1.587zm0 13.137v-2.524l-2.76 1.588v2.525l2.76-1.589zm5.258-98.89v-2.508l-2.76 1.588v2.508l2.76-1.588zm0 10.614v-2.509l-2.76 1.589v2.508l2.76-1.588zm0 8.105v2.509l-2.76 1.598v-2.523l2.76-1.584zm0 13.139v-2.525l-2.76 1.605v2.508l2.76-1.588zm0 8.106v2.508l-2.76 1.588v-2.512l2.76-1.584zm0 13.121v-2.508l-2.76 1.588v2.524l2.76-1.604zm0 8.106v2.525l-2.76 1.587v-2.508l2.76-1.604zm0 13.138v-2.511l-2.76 1.59v2.506l2.76-1.585zm0 8.105v2.508l-2.76 1.589v-2.509l2.76-1.588zm0 13.139v-2.525l-2.76 1.588v2.524l2.76-1.587z" fill="#04F"/><path d="M296.532 84.234v-2.509l-17.246 9.901v2.509l17.246-9.901zm0 10.613v-2.509l-17.246 9.901v2.509l17.246-9.901zm0 8.106v2.508l-17.246 9.917v-2.524l17.246-9.901zm0 13.138v-2.525l-17.246 9.917v2.509l17.246-9.901zm0 8.106v2.508l-17.246 9.901v-2.508l17.246-9.901zm0 13.122v-2.509l-17.246 9.901v2.525l17.246-9.917zm0 8.105v2.525l-17.246 9.9v-2.508l17.246-9.917zm0 13.138v-2.512l-17.246 9.901v2.509l17.246-9.898zm0 8.105v2.509l-17.246 9.901v-2.508l17.246-9.902zm0 13.139v-2.524l-17.246 9.901v2.524l17.246-9.901z" fill="#1D2330"/><path d="M259.486 89.195l-35.881-20.71 35.881-20.726 35.879 20.726-35.879 20.71z" fill="#2C3548"/><path d="M259.486 51.13l32.967 19.032 2.915-1.677-35.882-20.726-35.881 20.726 2.916 1.677 32.965-19.033z" fill="#242B38"/><path d="M259.486 47.759l-35.881 20.726 2.916 1.677 32.967-19.033-.002-3.37z" fill="#101827"/><path d="M278 221.885l42.503 24.541V131.075L278 106.541v115.344z" fill="#242B38"/><path d="M320.503 131.075v115.351L363 221.885V106.541l-42.497 24.534z" fill="#101827"/><path d="M363 106.541l-42.497 24.535L278 106.541 320.503 82 363 106.541z" fill="#2C3548"/><path d="M320.504 116.13v3.023l-25.702-14.839v-3.022l25.702 14.838z" fill="#242B38"/><path d="M346.205 101.292l-25.701 14.838-25.702-14.838 25.702-14.838 25.701 14.838z" fill="#2C3548"/><path d="M346.205 101.292l-25.702 14.838v3.023l25.702-14.839v-3.022z" fill="#101827"/><path d="M310.699 229.227l-24.689-14.258v-1.39l24.689 14.258v1.39zm0-3.253L286.01 211.71v-1.39l24.689 14.258v1.396zm0-3.259l-24.689-14.258v-1.39l24.689 14.258v1.39zm0-3.252l-24.689-14.258v-1.39l24.689 14.258v1.39zm0-3.259l-24.689-14.258v-1.39l24.689 14.258v1.39zm0-3.253l-24.689-14.257v-1.39l24.689 14.257v1.39zm0-3.252l-24.689-14.258v-1.39l24.689 14.258v1.39zm0-3.259l-24.689-14.258v-1.39l24.689 14.258v1.39zm0-3.252L286.01 188.93v-1.39l24.689 14.258v1.39zm0-3.259l-24.689-14.251v-1.397l24.689 14.258v1.39zm0-3.253l-24.689-14.258v-1.39l24.689 14.258v1.39zm0-3.252l-24.689-14.258v-1.39l24.689 14.258v1.39zm0-32.834l-24.689-14.258v-1.39l24.689 14.258v1.39zm0-3.253l-24.689-14.258v-1.39l24.689 14.258v1.39zm0-3.252l-24.689-14.264v-1.39l24.689 14.257v1.397zm0-3.259l-24.689-14.258v-1.39l24.689 14.258v1.39zm0-3.252l-24.689-14.258v-1.39l24.689 14.258v1.39zm0-3.26l-24.689-14.257v-1.39l24.689 14.257v1.39zm0-3.252l-24.689-14.258v-1.39l24.689 14.258v1.39zm0-3.252l-24.689-14.258v-1.39l24.689 14.251v1.397z" fill="#1D2330"/><path d="M324.141 235.749v-101.8l35.228-20.341v101.801l-35.228 20.34z" stroke="#1D2330"/><path d="M123.993 127.828L39 78.695V264.6l84.993 49.133V127.828z" fill="#242B38"/><path d="M123.993 127.828L209 78.695V264.6l-85.007 49.133V127.828z" fill="#101827"/><path d="M131.865 271.256l65.335-37.764V94.6l-65.335 37.764v138.892z" fill="#101827"/><path d="M209 70.824l-85.007 49.132L39 70.824l84.993-49.12L209 70.825z" fill="#2C3548"/><path d="M197.199 233.492l3.943 2.269V92.332l-3.943 2.268v138.892z" fill="#161B26"/><path d="M201.142 235.76l-3.942-2.268-65.335 37.764v4.537l69.277-40.033z" fill="#2C3548"/><path d="M123.993 123.953v-3.997L39 70.824v3.996l84.993 49.133z" fill="#242B38"/><path d="M123.993 119.956v3.997L209 74.833v-4.01l-85.007 49.133z" fill="#101827"/><path d="M123.993 123.953L42.362 76.765 39 78.695l84.993 49.133v-3.875z" fill="#2C3548"/><path d="M123.993 123.953l81.645-47.188 3.362 1.93-85.007 49.133v-3.875zm7.872 119.139v-7.088l60.69-35.064 10.073 5.657-66.766 38.737-3.997-2.242z" fill="#2C3548"/><path d="M202.627 206.597v20.023l-66.766 38.737v-20.023l66.766-38.737z" fill="#101827"/><path d="M131.865 263.115l3.997 2.242v-20.023l-3.997-2.242v20.023z" fill="#161B26"/><path d="M139.021 246.725l10.95-6.441v10.491l-10.95 6.427v-10.477z" fill="#04F"/><mask id="a" maskUnits="userSpaceOnUse" x="139" y="240" width="11" height="18"><path d="M139.021 246.725l10.95-6.441v10.491l-10.95 6.427v-10.477z" fill="#04F"/></mask><g mask="url(#a)"><path d="M138.09 254.636c.931-4.671 3.186-1.066 5.536-3.011 1.755-1.431.553-8.479 2.902-6.831 3.443 2.416 4.051-3.011 4.051-3.011" stroke="#04F" stroke-width=".55" stroke-miterlimit="10"/></g><path d="M155.857 237.246l10.937-6.427v3.457l-10.937 6.427v-3.457z" fill="#04F"/><path d="M139.021 257.202v2.741l13.313-7.818-2.363-1.35-10.95 6.427z" fill="#2C3548"/><path d="M149.971 250.775v-10.491l2.363-1.377v13.218l-2.363-1.35z" fill="#161B26"/><path d="M155.845 248.223c0 .905.648 1.283 1.431.824a3.145 3.145 0 001.431-2.471c0-.918-.634-1.35-1.431-.824a3.193 3.193 0 00-1.431 2.471z" fill="#FDC201"/><path d="M160.516 245.617c0 .918.648 1.283 1.431.837a3.353 3.353 0 001.431-2.484c0-.905-.648-1.269-1.431-.824a3.195 3.195 0 00-1.431 2.471z" fill="#04F"/><path d="M131.865 217.169v-7.089l60.69-35.077 10.073 5.671-66.766 38.736-3.997-2.241z" fill="#2C3548"/><path d="M202.627 180.674v20.009l-66.766 38.75V219.41l66.766-38.736z" fill="#101827"/><path d="M131.865 237.178l3.997 2.255V219.41l-3.997-2.241v20.009z" fill="#161B26"/><path d="M139.021 220.787l10.95-6.427v10.478l-10.95 6.426v-10.477z" fill="#04F"/><mask id="b" maskUnits="userSpaceOnUse" x="139" y="214" width="11" height="18"><path d="M139.021 220.787l10.95-6.427v10.478l-10.95 6.426v-10.477z" fill="#04F"/></mask><g mask="url(#b)"><path d="M138.441 223.258c1.54-.729 2.998 3.389 5.172 2.39 2.173-.999 1.35-3.848 3.415-4.24 2.066-.391 3.295-4.226 3.295-4.226" stroke="#04F" stroke-width=".55" stroke-miterlimit="10"/></g><path d="M155.857 211.323l10.937-6.441v3.457l-10.937 6.44v-3.456z" fill="#04F"/><path d="M139.021 231.265v2.741l13.313-7.818-2.363-1.35-10.95 6.427z" fill="#2C3548"/><path d="M149.971 224.838V214.36l2.363-1.39v13.218l-2.363-1.35z" fill="#161B26"/><path d="M155.845 222.245c0 .905.648 1.27 1.431.824a3.306 3.306 0 001.431-2.484c0-.905-.634-1.269-1.431-.824a3.2 3.2 0 00-1.011 1.072 3.196 3.196 0 00-.42 1.412z" fill="#FDC201"/><path d="M160.516 219.64c0 .904.648 1.35 1.431.823a3.193 3.193 0 001.431-2.471c0-.918-.648-1.282-1.431-.823a3.183 3.183 0 00-1.431 2.471z" fill="#04F"/><path d="M131.865 191.273v-7.089l60.69-35.077 10.073 5.671-66.766 38.736-3.997-2.241z" fill="#2C3548"/><path d="M202.627 154.778v20.009l-66.766 38.75v-20.023l66.766-38.736z" fill="#101827"/><path d="M131.865 211.282l3.997 2.255v-20.023l-3.997-2.242v20.01z" fill="#161B26"/><path d="M139.021 194.891l10.95-6.427v10.478l-10.95 6.426v-10.477z" fill="#04F"/><mask id="c" maskUnits="userSpaceOnUse" x="139" y="188" width="11" height="18"><path d="M139.021 194.891l10.95-6.427v10.478l-10.95 6.426v-10.477z" fill="#04F"/></mask><g mask="url(#c)"><path d="M137.401 197.186c1.351 7.224 5.401 3.119 6.292 1.121 2.957-7.075 6.67-7.021 6.67-7.021" stroke="#04F" stroke-width=".55" stroke-miterlimit="10"/></g><path d="M155.857 185.413l10.937-6.427v3.457l-10.937 6.44v-3.47z" fill="#04F"/><path d="M139.021 205.369v2.741l13.313-7.818-2.363-1.35-10.95 6.427z" fill="#2C3548"/><path d="M149.971 198.942v-10.478l2.363-1.39v13.218l-2.363-1.35z" fill="#161B26"/><path d="M155.845 196.403c0 .905.648 1.269 1.431.824a3.15 3.15 0 001.431-2.485c0-.904-.634-1.269-1.431-.823a3.182 3.182 0 00-1.431 2.484z" fill="#FDC201"/><path d="M160.516 193.797c0 .905.648 1.283 1.431.824a3.345 3.345 0 001.431-2.471c0-.918-.648-1.35-1.431-.823a3.157 3.157 0 00-1.431 2.47z" fill="#04F"/><path d="M131.865 165.349v-7.088l60.69-35.064 10.073 5.657-66.766 38.75-3.997-2.255z" fill="#2C3548"/><path d="M202.627 128.854v20.023l-66.766 38.75v-20.023l66.766-38.75z" fill="#101827"/><path d="M131.865 185.372l3.997 2.255v-20.023l-3.997-2.255v20.023z" fill="#161B26"/><path d="M139.021 168.981l10.95-6.427v10.478l-10.95 6.426v-10.477z" fill="#04F"/><mask id="d" maskUnits="userSpaceOnUse" x="139" y="162" width="11" height="18"><path d="M139.021 168.981l10.95-6.427v10.478l-10.95 6.426v-10.477z" fill="#04F"/></mask><g mask="url(#d)"><path d="M138.062 173.315c2.215-2.511 2.849 1.769 5.01.769 2.16-.999 2.7-6.629 4.779-7.02 2.079-.392 2.498 3.942 2.498 3.942" stroke="#04F" stroke-width=".55" stroke-miterlimit="10"/></g><path d="M155.857 159.503l10.937-6.427v3.457l-10.937 6.44v-3.47z" fill="#04F"/><path d="M139.021 179.459v2.74l13.313-7.817-2.363-1.35-10.95 6.427z" fill="#2C3548"/><path d="M149.971 173.032v-10.478l2.363-1.39v13.218l-2.363-1.35z" fill="#161B26"/><path d="M155.845 170.48c0 .918.648 1.282 1.431.823a3.253 3.253 0 001.431-2.471c0-.904-.634-1.282-1.431-.823a3.193 3.193 0 00-1.431 2.471z" fill="#FDC201"/><path d="M160.516 167.888c0 .904.648 1.282 1.431.823a3.193 3.193 0 001.431-2.471c0-.918-.648-1.35-1.431-.823-.417.27-.764.634-1.012 1.064a3.129 3.129 0 00-.419 1.407z" fill="#04F"/><path d="M131.865 139.453v-7.088l60.69-35.078 10.073 5.671-66.766 38.736-3.997-2.241z" fill="#2C3548"/><path d="M202.627 102.958v20.023l-66.766 38.736v-20.023l66.766-38.736z" fill="#101827"/><path d="M131.865 159.476l3.997 2.241v-20.023l-3.997-2.241v20.023z" fill="#161B26"/><path d="M139.021 143.071l10.95-6.426v10.477l-10.95 6.44v-10.491z" fill="#04F"/><mask id="e" maskUnits="userSpaceOnUse" x="139" y="136" width="11" height="18"><path d="M139.021 143.071l10.95-6.426v10.477l-10.95 6.44v-10.491z" fill="#04F"/></mask><g mask="url(#e)"><path d="M136.537 150.214s2.052-4.253 3.605-4.253c1.161 0 1.013 2.97 2.7 2.173 1.688-.796-.607-4.901 1.567-5.886 2.173-.986 1.35 3.024 3.335 2.7 1.984-.324 2.592-5.401 2.592-5.401" stroke="#04F" stroke-width=".55" stroke-miterlimit="10"/></g><path d="M155.857 133.607l10.937-6.44v3.456l-10.937 6.44v-3.456z" fill="#04F"/><path d="M139.021 153.562v2.741l13.313-7.831-2.363-1.35-10.95 6.44z" fill="#2C3548"/><path d="M149.971 147.122v-10.477l2.363-1.391v13.218l-2.363-1.35z" fill="#161B26"/><path d="M155.845 144.584c0 .904.648 1.282 1.431.823a3.151 3.151 0 001.431-2.471c0-.918-.634-1.282-1.431-.823a3.148 3.148 0 00-1.431 2.471z" fill="#FDC201"/><path d="M160.516 141.977c0 .919.648 1.351 1.431.824a3.295 3.295 0 001.431-2.471c0-.904-.648-1.35-1.431-.823a3.183 3.183 0 00-1.431 2.47z" fill="#04F"/><path d="M54.716 65.45l69.277-40.046 69.291 40.06-69.291 40.032L54.716 65.45z" fill="#2C3548"/><path d="M123.993 110.87L54.716 70.824V65.45l69.277 40.046v5.374z" fill="#242B38"/><path d="M123.993 110.87l69.291-40.046v-5.36l-69.291 40.032v5.374z" fill="#101827"/><path d="M123.67 38L74 65.643l49.67 27.643 49.66-27.643L123.67 38z" fill="#FDC201"/><path d="M123.67 46.306L88.91 65.644l34.76 19.349 34.75-19.35-34.75-19.337z" fill="#2C3548"/><path d="M123.669 84.993v8.293L88.909 73.95v-8.305l34.76 19.349z" fill="#242B38"/><path d="M123.669 84.993v8.293l34.75-19.337v-8.305l-34.75 19.349z" fill="#101827"/><path fill-rule="evenodd" clip-rule="evenodd" d="M308.076 195.032a.75.75 0 01-.655.834l-.092.012a.751.751 0 01-.188-1.489l.1-.012a.75.75 0 01.835.655zm3.276.09a.749.749 0 01.883-.588l.098.02a.75.75 0 11-.306 1.469 1.373 1.373 0 00-.088-.018.75.75 0 01-.587-.883zm-8.035.913a.75.75 0 01-.444.963l-.088.033a.75.75 0 11-.525-1.405l.093-.035a.75.75 0 01.964.444zm35.01.455a.75.75 0 01.891-.575l.106.024a.749.749 0 11-.334 1.462l-.088-.02a.749.749 0 01-.575-.891zm-3.442.136a.751.751 0 01-.55.907 3.03 3.03 0 00-.091.023.75.75 0 01-.368-1.455l.102-.025a.75.75 0 01.907.55zm-18.951.084a.75.75 0 011.043-.197l.083.058a.749.749 0 11-.855 1.232 4.744 4.744 0 00-.074-.051.75.75 0 01-.197-1.042zm-17.074 1.295a.75.75 0 01-.276 1.024l-.085.048a.75.75 0 11-.747-1.3l.084-.049a.75.75 0 011.024.277zm31.293.352a.75.75 0 01-.277 1.023l-.033.019-.009.006-.031.018a.75.75 0 11-.77-1.287l.051-.03.045-.026a.749.749 0 011.024.277zm12.716.197a.75.75 0 011.06.039l.073.08a.749.749 0 11-1.11 1.008l-.062-.067a.75.75 0 01.039-1.06zm-23.341 1.412a.75.75 0 011.041.204l.03.044a.751.751 0 01-1.071-.248zm-24.924.76a.75.75 0 01-.139 1.051l-.077.06a.75.75 0 01-.916-1.189l.081-.061a.75.75 0 011.051.139zm31.495.347a.75.75 0 01-.09 1.057l-.071.06a.75.75 0 11-.97-1.144l.075-.063a.75.75 0 011.056.09zm19.453 1.71a.75.75 0 01.929.512l.028.101a.75.75 0 11-1.444.405l-.025-.09a.749.749 0 01.512-.928zm-54.828 1.181a.75.75 0 01-.019 1.06l-.071.068a.75.75 0 11-1.043-1.078l.072-.07a.75.75 0 011.061.02zm31.476.291a.749.749 0 00-.895.953l.014.045.405 1.298.912-1.071a.75.75 0 00-.436-1.225zm-34.988 3.345a.749.749 0 01.085 1.057l-.063.075a.75.75 0 11-1.144-.97l.065-.077a.75.75 0 011.057-.085zm59.192.148a.75.75 0 01.749.751v.072l-.004.078a.75.75 0 01-1.498-.086l.002-.037v-.029a.75.75 0 01.751-.749zm-62.345 3.803c.338.24.418.708.179 1.046l-.057.08a.75.75 0 01-1.225-.865l.058-.082a.75.75 0 011.045-.179zm61.731 2.021a.75.75 0 01.577.89l-.025.115a.75.75 0 01-1.466-.318l.024-.11a.75.75 0 01.89-.577zm-64.531 2.189a.75.75 0 01.265 1.027l-.05.084a.75.75 0 11-1.293-.76l.051-.087a.75.75 0 011.027-.264zm62.975 3.468a.75.75 0 01.432.968l-.043.11a.75.75 0 11-1.398-.542l.04-.105a.75.75 0 01.969-.431zm-65.418.957a.75.75 0 01.348 1.002l-.043.089a.75.75 0 01-1.351-.652l.044-.091a.75.75 0 011.002-.348zm63.002 4.388a.75.75 0 01.275 1.025l-.029.051-.03.05a.749.749 0 11-1.297-.752l.028-.049.028-.049a.752.752 0 011.025-.276zm-65.072.224a.75.75 0 01.43.969l-.19.496-.482.03-.045.003a.751.751 0 01-.462-1.375.749.749 0 01.749-.123zm-4.304 1.813a.75.75 0 01-.252 1.03l-.03.019-.036.023a.75.75 0 11-.823-1.254l.048-.032.009-.006.009-.005.045-.027a.75.75 0 011.03.252zm66.157 2.869a.75.75 0 01.113 1.054l-.074.092a.75.75 0 01-1.165-.946l.071-.087a.75.75 0 011.055-.113zm-70.653.606c.3.286.312.76.027 1.06l-.075.079a.75.75 0 01-1.091-1.029l.079-.084a.75.75 0 011.06-.026zm66.711 3.738a.75.75 0 01-.053 1.06l-.087.078a.749.749 0 11-1.003-1.114l.083-.076a.75.75 0 011.06.052zm-70.264.709a.75.75 0 01.272 1.025l-.027.047-.027.047a.75.75 0 01-1.301-.747l.029-.05.029-.05a.75.75 0 011.025-.272zm65.694 2.97a.75.75 0 01-.217 1.039l-.066.043-.061.035a.75.75 0 01-.75-1.299l.025-.015.03-.019a.751.751 0 011.039.216zm-68.117 2.18a.75.75 0 01.503.934l-.031.104a.75.75 0 01-1.439-.425l.033-.11a.75.75 0 01.934-.503zm63.762.387a.75.75 0 01-.274 1.024l-.086.05a.751.751 0 01-.75-1.299l.085-.05a.75.75 0 011.025.275zm-4.371 2.524a.75.75 0 01-.275 1.025l-.086.049a.75.75 0 01-.75-1.299l.086-.049a.75.75 0 011.025.274zm-4.372 2.524a.751.751 0 01-.274 1.025l-.086.049a.75.75 0 11-.75-1.299l.086-.049a.75.75 0 011.024.274zm-56.179.138a.75.75 0 01.706.791l-.003.04a.744.744 0 01-.032.196.754.754 0 01.033.219v.686l-.679.065-.055.005a.75.75 0 01-.755-1.063.796.796 0 01-.011-.13v-.025l.001-.021.003-.058a.75.75 0 01.792-.705zm51.808 2.386a.75.75 0 01-.275 1.025l-.085.049a.75.75 0 11-.751-1.299l.086-.049a.751.751 0 011.025.274zm-56.823.327a.749.749 0 01-.256 1.029l-.039.023-.029.019a.75.75 0 11-.818-1.256l.05-.033.01-.006.053-.033a.75.75 0 011.029.257zm52.451 2.198a.75.75 0 01-.274 1.024l-.086.05a.75.75 0 01-.75-1.299l.086-.05a.75.75 0 011.024.275zm-56.41.647a.75.75 0 01-.057 1.059l-.07.062a.75.75 0 01-1.005-1.114l.073-.065a.749.749 0 011.059.058zm52.039 1.877a.75.75 0 01-.275 1.024l-.085.05a.75.75 0 01-.75-1.299l.085-.05a.75.75 0 011.025.275zm-55.479 1.563a.75.75 0 01.108 1.055l-.059.072a.75.75 0 11-1.166-.943l.062-.076a.75.75 0 011.055-.108zm51.107.961a.748.748 0 01-.274 1.024l-.086.05a.75.75 0 01-.75-1.299l.086-.05a.75.75 0 011.024.275zm-4.371 2.524a.75.75 0 01-.274 1.024l-.086.05a.75.75 0 01-.75-1.299l.085-.05a.75.75 0 011.025.275zm-49.598.45a.75.75 0 01.272 1.025l-.023.04-.024.041a.75.75 0 11-1.299-.75l.024-.042.025-.042a.75.75 0 011.025-.272zm45.227 2.074a.75.75 0 01-.275 1.025l-.086.049a.75.75 0 01-.75-1.299l.086-.049a.75.75 0 011.025.274zm-4.372 2.524a.751.751 0 01-.274 1.025l-.086.049a.75.75 0 11-.75-1.299l.086-.049a.75.75 0 011.024.274zm-43.067-.265a.75.75 0 01.428.971l-.033.087a.75.75 0 01-1.401-.538l.036-.091a.75.75 0 01.97-.429zm38.696 2.789a.75.75 0 01-.275 1.025l-.085.049a.75.75 0 11-.751-1.299l.086-.049a.751.751 0 011.025.274zm-40.205 1.837a.751.751 0 01.575.892l-.02.091a.75.75 0 11-1.467-.313l.021-.095a.75.75 0 01.891-.575zm35.833.687a.75.75 0 01-.274 1.025l-.086.05a.75.75 0 01-.75-1.299l.086-.05a.75.75 0 011.024.274zm-4.371 2.525a.75.75 0 01-.275 1.024l-.085.05a.75.75 0 01-.75-1.299l.085-.05a.75.75 0 011.025.275zm-32.23 1.593c.413.023.73.377.706.791l-.001.025v.03a.75.75 0 11-1.5.004v-.074l.004-.07a.749.749 0 01.791-.706zm27.858.931a.748.748 0 01-.274 1.024l-.086.05a.75.75 0 01-.75-1.299l.086-.05a.75.75 0 011.024.275zm-4.371 2.524a.75.75 0 01-.274 1.024l-.086.05a.75.75 0 01-.75-1.299l.085-.05a.75.75 0 011.025.275zm-22.952 1.733a.75.75 0 01.97.428l.035.09a.75.75 0 11-1.393.556l-.041-.104a.749.749 0 01.429-.97zm18.581.791a.75.75 0 01-.275 1.025l-.086.049a.75.75 0 01-.75-1.299l.086-.049a.75.75 0 011.025.274zm-4.372 2.524a.751.751 0 01-.274 1.025l-.045.026-.047.027a.75.75 0 01-.743-1.304l.042-.024.002-.001.041-.023a.75.75 0 011.024.274zm-11.35 1.002a.75.75 0 011.025-.271l.079.046a.75.75 0 11-.734 1.307 3.217 3.217 0 01-.1-.056.75.75 0 01-.27-1.026zm6.562 1.087a.75.75 0 01-.624.858l-.109.017a.751.751 0 01-.219-1.484l.095-.015a.75.75 0 01.857.624z" fill="#04F"/><path fill-rule="evenodd" clip-rule="evenodd" d="M340.001 197.122a.75.75 0 011.03-.255l.041.025a.75.75 0 01-.775 1.284l-.041-.024a.75.75 0 01-.255-1.03zm4.129 2.492a.75.75 0 011.03-.255l.082.049a.75.75 0 01-.775 1.285l-.082-.05a.75.75 0 01-.255-1.029zm4.17 2.516a.75.75 0 011.03-.255l.081.05a.75.75 0 11-.775 1.284l-.081-.049a.75.75 0 01-.255-1.03zm4.17 2.516a.75.75 0 011.03-.254l.081.049a.75.75 0 11-.775 1.284l-.081-.049a.75.75 0 01-.255-1.03zm4.17 2.517a.75.75 0 011.03-.255l.081.049a.75.75 0 11-.775 1.285l-.082-.05a.75.75 0 01-.254-1.029zm4.17 2.516a.75.75 0 011.029-.255l.041.025a.75.75 0 11-.775 1.284l-.041-.024a.75.75 0 01-.254-1.03zm-115.039 71.273l.04.024a.75.75 0 01.252 1.03.75.75 0 01-.677.361l-.01-.001a.738.738 0 01-.343-.108l-.04-.023.778-1.283zm3.048 2.551a.75.75 0 01.939-.131l.079.048a.75.75 0 01-.778 1.282l-.079-.048a.75.75 0 01-.161-1.151zm3.935 2.565a.75.75 0 011.03-.252l.079.048a.751.751 0 01.252 1.03.75.75 0 01-1.03.252l-.079-.048a.75.75 0 01-.252-1.03zm4.118 2.322a.75.75 0 01.939-.131l.078.048a.75.75 0 11-.778 1.283l-.079-.048a.75.75 0 01-.16-1.152zm3.939 2.557a.75.75 0 011.026-.244l.079.048a.75.75 0 11-.779 1.282l-.079-.048a.75.75 0 01-.252-1.03l.005-.008zm4.113 2.331a.75.75 0 01.939-.131l.039.024-.778 1.282-.039-.024a.749.749 0 01-.161-1.151z" fill="#04F"/><path d="M265.684 293.492l-.389-.237c-1.446-.957-2.55-2.604-3.085-4.916-.231-.996-.356-2.114-.357-3.353a30.33 30.33 0 011.945-9.153l65.615-37.887a37.581 37.581 0 0011.999-12.673 37.592 37.592 0 004.098-10.428 28.956 28.956 0 014.444-3.259c1.272-.733 2.499-1.274 3.665-1.637 3.008-.937 5.621-.694 7.619.457 2.774 1.598 4.597 5.095 4.579 10.336a36.901 36.901 0 01-4.891 16.39 36.897 36.897 0 01-11.755 12.419l-74.296 42.897a12.16 12.16 0 01-5.96 1.83 6.57 6.57 0 01-3.231-.786zm-20.211-12.264c1.534.074 3.993.422 6.158.374 1.379-.03 2.639-.221 3.465-.746l7.731-4.464a31.078 31.078 0 00-1.698 8.575c-.039.958.428 2.153 1.081 3.372.972 1.816 2.354 3.687 3.085 4.916l-19.822-12.027zm0 0c-2.24-1.297-3.75-4.135-3.762-8.46a30.353 30.353 0 0113.763-23.781 12.678 12.678 0 015.348-1.774l.651-.731 18.873 12.296a13.371 13.371 0 00-5.124 1.816 31.06 31.06 0 00-12.012 14.739l-8.477 4.895a12.197 12.197 0 01-5.96 1.829 6.551 6.551 0 01-3.299-.827l-.001-.002zm20.41-9.777a30.368 30.368 0 019.728-10.247 12.676 12.676 0 015.35-1.773l.649-.064v-1.078a23.586 23.586 0 0110.659-18.447 9.457 9.457 0 014.36-1.371l.462-.027.164-.433c4.256-11.097 12.176-21.496 21.396-26.775a26.153 26.153 0 016.58-2.756l16.473 9.705.162.518.846-.992a28.289 28.289 0 011.839-1.969 36.98 36.98 0 01-3.761 9.177 36.888 36.888 0 01-11.756 12.418l-64.8 37.416a30.24 30.24 0 011.65-3.301l-.001-.001zm-4.41-24.969v-.411a23.603 23.603 0 013.13-10.49 23.598 23.598 0 017.531-7.957 9.45 9.45 0 014.358-1.372l.389-.024 18.807 11.619a10.162 10.162 0 00-3.796 1.385 24.319 24.319 0 00-10.995 19.029l-19.424-11.779zm15.731-20.892l-.323.638c4.274-11.025 12.464-21.96 21.634-27.207 5.518-3.18 10.5-3.948 14.423-2.805 3.899 1.137 6.897 4.208 8.403 9.024l.389 1.246.04-.048v.008l.215.127 2.379 1.402a27.425 27.425 0 00-6.074 2.642c-9.353 5.357-17.334 15.834-21.648 26.986l-19.438-12.013zm64.691-9.142c-2.619-7.281-8.799-10.578-16.555-8.736l-3.355-1.139-.255-.087.846-.999a29.117 29.117 0 017.242-6.119c4.417-2.547 8.274-2.767 11.025-1.318l.726.436c1.754 1.203 3.078 3.234 3.705 6.046.265 1.191.405 2.522.399 3.991a36.915 36.915 0 01-.82 5.938 29.703 29.703 0 00-2.693 2.777c-.08-.268-.167-.531-.26-.789l-.005-.001zm-15.642-8.198a14.395 14.395 0 016.817.179c3.819 1.114 6.774 4.081 8.302 8.732l-15.119-8.911zm20.14.297c.058-1.176-.42-2.584-1.119-4.015-1.089-2.225-2.716-4.504-3.705-6.046l19.669 11.92c-1.975-.184-4.986-.594-7.619-.457-1.585.082-3.033.363-4.037 1.011a29.846 29.846 0 00-3.833 2.717c.334-1.691.552-3.403.651-5.123l-.007-.007z" fill="#333C4F" fill-opacity=".1"/><path fill-rule="evenodd" clip-rule="evenodd" d="M262.21 288.339c-.231-.996-.356-2.114-.357-3.353a30.33 30.33 0 011.945-9.153l65.615-37.887a37.581 37.581 0 0011.999-12.673 37.592 37.592 0 004.098-10.428 28.956 28.956 0 014.444-3.259c1.272-.733 2.499-1.274 3.665-1.637-1.585.082-3.033.363-4.037 1.011a29.846 29.846 0 00-3.833 2.717c.334-1.691.552-3.403.651-5.123l-.007-.007c.058-1.176-.42-2.584-1.119-4.015.265 1.191.405 2.522.399 3.991a36.915 36.915 0 01-.82 5.938 29.703 29.703 0 00-2.693 2.777c-.08-.268-.167-.531-.26-.789l-.005-.001c-2.619-7.281-8.799-10.578-16.555-8.736l-3.355-1.139 2.379 1.402a27.425 27.425 0 00-6.074 2.642c-9.353 5.357-17.334 15.834-21.648 26.986l-19.438-12.013-.323.638 18.807 11.619a10.162 10.162 0 00-3.796 1.385 24.319 24.319 0 00-10.995 19.029l.713.028a23.586 23.586 0 0110.659-18.447 9.457 9.457 0 014.36-1.371l.462-.027.164-.433c4.256-11.097 12.176-21.496 21.396-26.775a26.153 26.153 0 016.58-2.756l16.473 9.705.162.518.846-.992a28.289 28.289 0 011.839-1.969 36.98 36.98 0 01-3.761 9.177 36.888 36.888 0 01-11.756 12.418l-64.8 37.416a30.24 30.24 0 011.65-3.301l-.001-.001a30.368 30.368 0 019.728-10.247 12.676 12.676 0 015.35-1.773l.649-.064v-1.078l-.713-.028-19.424-11.779 18.873 12.296a13.371 13.371 0 00-5.124 1.816 31.06 31.06 0 00-12.012 14.739l-8.477 4.895a12.197 12.197 0 01-3.102 1.374c1.379-.03 2.639-.221 3.465-.746l7.731-4.464a31.078 31.078 0 00-1.698 8.575c-.039.958.428 2.153 1.081 3.372zm70.86-79.91a14.395 14.395 0 00-6.817-.179l15.119 8.911c-1.528-4.651-4.483-7.618-8.302-8.732z" fill="#333C4F" fill-opacity=".1"/><path fill-rule="evenodd" clip-rule="evenodd" d="M321.614 206.802l-.04-.023.761-1.293.04.024a.752.752 0 01.176 1.149.75.75 0 01-.937.143zm3.681 1.298a.75.75 0 011.027-.265l.079.046a.748.748 0 01.266 1.027.75.75 0 01-1.027.266l-.079-.047a.75.75 0 01-.266-1.027zm4.026 2.372a.75.75 0 011.027-.266l.079.047a.75.75 0 11-.761 1.292l-.079-.046a.75.75 0 01-.266-1.027zm4.027 2.371a.75.75 0 011.027-.265l.078.046a.75.75 0 01-.761 1.293l-.079-.047a.748.748 0 01-.265-1.026v-.001zm4.026 2.372a.75.75 0 011.027-.266l.079.047a.75.75 0 01-.762 1.292l-.079-.046a.75.75 0 01-.265-1.027zm4.026 2.372a.75.75 0 011.027-.266l.039.023-.761 1.293-.039-.023a.75.75 0 01-.266-1.027zm-63.985 7.67l.039.024a.751.751 0 01-.789 1.276l-.038-.024.788-1.276zm2.883 2.663a.75.75 0 011.033-.243l.077.047a.75.75 0 11-.788 1.276l-.078-.047a.752.752 0 01-.244-1.033zm3.955 2.444a.75.75 0 011.032-.244l.078.048a.75.75 0 01-.789 1.276l-.077-.048a.75.75 0 01-.244-1.032zm3.954 2.443a.75.75 0 011.032-.244l.078.048a.751.751 0 01.244 1.033.75.75 0 01-1.033.243l-.077-.047a.75.75 0 01-.244-1.033zm3.954 2.444a.75.75 0 011.033-.244l.077.048a.75.75 0 11-.788 1.276l-.078-.048a.75.75 0 01-.244-1.032zm3.955 2.443a.75.75 0 011.032-.244l.039.024-.789 1.276-.038-.024a.749.749 0 01-.244-1.032zm-35.549 8.654a.749.749 0 011.03-.252l.04.024a.75.75 0 11-.779 1.282l-.039-.024a.75.75 0 01-.252-1.03zm3.987 2.419a.75.75 0 011.03-.252l.079.048a.75.75 0 11-.778 1.282l-.079-.048a.75.75 0 01-.252-1.03zm4.026 2.444a.749.749 0 011.03-.252l.079.047a.75.75 0 01-.778 1.283l-.079-.048a.75.75 0 01-.252-1.03zm4.026 2.443a.75.75 0 011.03-.252l.079.048a.75.75 0 11-.778 1.282l-.079-.048a.75.75 0 01-.252-1.03zm4.026 2.443a.75.75 0 011.03-.252l.079.048a.75.75 0 11-.778 1.283l-.079-.048a.75.75 0 01-.252-1.031zm4.026 2.444a.75.75 0 011.031-.252l.039.024a.75.75 0 11-.778 1.282l-.04-.024a.75.75 0 01-.252-1.03z" fill="#04F"/><path d="M349.589 210.966a29.839 29.839 0 00-7.425 6.276c-3.124-10.011-12.616-13.114-23.866-6.627-9.398 5.38-17.41 15.932-21.71 27.141-1.664.102-3.277.61-4.699 1.48a24.328 24.328 0 00-10.995 19.035v.446c-2.005.193-3.94.836-5.662 1.881a31.066 31.066 0 00-14.102 24.369c0 8.977 6.273 12.596 14.097 8.106l74.313-42.909a37.61 37.61 0 0016.992-29.398c.044-10.81-7.569-15.205-16.943-9.8z" fill="#333C4F" fill-opacity=".1"/><path fill-rule="evenodd" clip-rule="evenodd" d="M328.205 207.243a.75.75 0 01-.654.835l-.092.011a.75.75 0 11-.188-1.488l.1-.012a.749.749 0 01.834.654zm3.276.09a.751.751 0 01.883-.588l.099.021a.75.75 0 11-.306 1.468l-.088-.018a.751.751 0 01-.588-.883zm-8.035.914a.75.75 0 01-.443.963l-.088.032a.75.75 0 11-.525-1.405l.093-.034a.749.749 0 01.963.444zm35.012.458a.749.749 0 01.891-.574l.106.024a.75.75 0 01-.334 1.462l-.089-.02a.75.75 0 01-.574-.892zm-3.443.135a.748.748 0 01-.55.906l-.091.023a.75.75 0 11-.366-1.455l.101-.025a.75.75 0 01.906.551zm-18.951.082a.749.749 0 011.042-.197l.084.057a.75.75 0 11-.855 1.233l-.074-.051a.75.75 0 01-.197-1.042zm-17.074 1.295a.748.748 0 01-.276 1.023l-.041.024-.044.025a.75.75 0 11-.748-1.3l.044-.025.041-.024a.75.75 0 011.024.277zm31.293.351a.75.75 0 01-.277 1.023l-.033.019-.009.006-.031.018a.75.75 0 11-.77-1.287l.051-.031.045-.026a.75.75 0 011.024.278zm12.716.203a.75.75 0 011.06.04l.073.079a.75.75 0 11-1.11 1.008l-.062-.067a.75.75 0 01.039-1.06zm-23.341 1.407a.75.75 0 011.041.204l.028.041.028.042a.75.75 0 01-1.249.83l-.027-.041-.024-.035a.751.751 0 01.203-1.041zm-24.924.76a.75.75 0 01-.139 1.051l-.078.06a.75.75 0 01-.915-1.189l.08-.061a.75.75 0 011.052.139zm31.495.347a.75.75 0 01-.09 1.057l-.071.06a.75.75 0 11-.97-1.144l.075-.063a.749.749 0 011.056.09zM365.682 215a.75.75 0 01.928.513l.011.037.018.063a.75.75 0 11-1.445.405l-.025-.09a.75.75 0 01.513-.928zm-54.829 1.175a.75.75 0 01-.019 1.061l-.07.068a.751.751 0 01-1.044-1.078l.073-.07a.75.75 0 011.06.019zm31.478.292a.75.75 0 00-.896.953l.013.045.406 1.298.912-1.071a.75.75 0 00-.435-1.225zm-34.989 3.345a.75.75 0 01.085 1.057l-.063.075a.75.75 0 01-1.144-.971l.065-.076a.749.749 0 011.057-.085zm59.191.153a.75.75 0 01.749.751l-.001.072-.004.078a.75.75 0 11-1.497-.086l.002-.037v-.029a.75.75 0 01.751-.749zm-62.344 3.798a.75.75 0 01.178 1.046l-.056.08a.75.75 0 11-1.225-.866l.058-.082a.75.75 0 011.045-.178zm61.729 2.026a.75.75 0 01.577.89l-.025.115a.751.751 0 01-1.466-.318l.024-.11a.75.75 0 01.89-.577zm-64.529 2.183a.751.751 0 01.265 1.028l-.05.084a.75.75 0 01-1.293-.76l.051-.087a.75.75 0 011.027-.265zm62.973 3.474a.75.75 0 01.432.969l-.042.109a.75.75 0 11-1.399-.541l.041-.106a.75.75 0 01.968-.431zm-65.416.952a.75.75 0 01.348 1.002l-.043.088a.75.75 0 11-1.351-.652l.044-.09a.75.75 0 011.002-.348zm63 4.394a.75.75 0 01.276 1.024l-.03.051-.029.051a.75.75 0 01-1.298-.753l.029-.048.028-.049a.75.75 0 011.024-.276zm-65.071.218a.75.75 0 01.431.969l-.19.496-.482.03-.045.003a.751.751 0 01-.462-1.375.748.748 0 01.748-.123zm-4.303 1.812a.749.749 0 01-.253 1.03l-.029.018-.036.024a.751.751 0 01-.823-1.255l.048-.031.009-.006.009-.006.045-.027a.75.75 0 011.03.253zm66.155 2.875a.75.75 0 01.113 1.055l-.073.091a.75.75 0 11-1.165-.945l.071-.088a.75.75 0 011.054-.113zm-70.651.6c.3.285.312.76.027 1.06l-.075.079a.75.75 0 01-1.091-1.029l.079-.084a.75.75 0 011.06-.026zm66.709 3.745a.75.75 0 01-.052 1.06l-.087.079a.751.751 0 01-1.004-1.115l.084-.076a.75.75 0 011.059.052zm-70.262.702a.75.75 0 01.272 1.025l-.027.047-.027.047a.75.75 0 11-1.301-.748l.029-.05.029-.049a.75.75 0 011.025-.272zm65.692 2.978a.75.75 0 01-.216 1.038l-.067.043-.06.035a.75.75 0 11-.75-1.299l.025-.014.03-.02a.75.75 0 011.038.217zm-68.115 2.172a.75.75 0 01.503.934l-.031.104a.75.75 0 01-1.439-.425l.033-.11a.75.75 0 01.934-.503zm63.761.394a.75.75 0 01-.275 1.025l-.085.049a.75.75 0 11-.751-1.299l.086-.049a.751.751 0 011.025.274zm-4.372 2.524a.75.75 0 01-.274 1.025l-.086.049a.75.75 0 01-.75-1.299l.086-.049a.75.75 0 011.024.274zm-4.371 2.524a.751.751 0 01-.274 1.025l-.086.049a.75.75 0 11-.75-1.299l.085-.049a.751.751 0 011.025.274zm-56.178.13a.751.751 0 01.706.792l-.003.04a.744.744 0 01-.032.196.754.754 0 01.033.219v.685l-.678.066-.056.005a.75.75 0 01-.755-1.063.798.798 0 01-.011-.131v-.025l.001-.02.003-.058a.751.751 0 01.792-.706zm51.807 2.395a.75.75 0 01-.275 1.024l-.086.05a.75.75 0 01-.75-1.299l.086-.05a.75.75 0 011.025.275zm-56.822.32a.749.749 0 01-.256 1.029l-.039.023-.029.019a.75.75 0 01-.819-1.257l.051-.032.01-.006.053-.033a.75.75 0 011.029.257zm52.45 2.204a.75.75 0 01-.274 1.024l-.086.05a.75.75 0 01-.75-1.299l.086-.05a.75.75 0 011.024.275zm-56.41.641a.75.75 0 01-.057 1.059l-.069.062a.75.75 0 11-1.005-1.113l.072-.066a.75.75 0 011.059.058zm52.039 1.883a.75.75 0 01-.275 1.024l-.085.05a.75.75 0 01-.75-1.299l.085-.05a.75.75 0 011.025.275zm-55.48 1.558a.75.75 0 01.109 1.055l-.059.072a.75.75 0 01-1.167-.943l.062-.076a.75.75 0 011.055-.108zm51.109.966a.75.75 0 01-.275 1.024l-.086.05a.75.75 0 01-.75-1.299l.086-.05a.75.75 0 011.025.275zm-4.372 2.524a.75.75 0 01-.274 1.024l-.086.05a.75.75 0 01-.75-1.299l.086-.05a.75.75 0 011.024.275zm-49.599.446a.75.75 0 01.272 1.025l-.023.04-.023.041a.75.75 0 01-1.3-.75l.025-.042.024-.042a.75.75 0 011.025-.272zm45.228 2.078a.75.75 0 01-.275 1.024l-.085.05a.75.75 0 01-.75-1.299l.085-.05a.75.75 0 011.025.275zm-4.371 2.524a.75.75 0 01-.275 1.024l-.086.05a.75.75 0 01-.75-1.299l.086-.05a.75.75 0 011.025.275zm-43.069-.268c.386.15.578.584.429.971l-.034.087a.75.75 0 11-1.4-.538l.035-.091a.75.75 0 01.97-.429zm38.697 2.792a.75.75 0 01-.274 1.024l-.086.05a.75.75 0 11-.75-1.299l.086-.05a.75.75 0 011.024.275zm-40.205 1.835a.751.751 0 01.575.892l-.02.091a.75.75 0 11-1.467-.312l.02-.096a.751.751 0 01.892-.575zm35.834.689a.75.75 0 01-.275 1.025l-.085.049a.751.751 0 01-.75-1.299l.085-.049a.75.75 0 011.025.274zm-4.372 2.524a.75.75 0 01-.274 1.025l-.086.049a.75.75 0 01-.75-1.299l.086-.049a.748.748 0 011.024.274zm-32.23 1.593a.75.75 0 01.707.79l-.001.026v.031a.75.75 0 01-1.5.004v-.075l.004-.069a.75.75 0 01.79-.707zm27.859.931a.751.751 0 01-.274 1.025l-.086.049a.75.75 0 11-.75-1.299l.086-.049a.75.75 0 011.024.274zm-4.371 2.524a.75.75 0 01-.275 1.025l-.085.049a.751.751 0 01-.751-1.299l.086-.049a.751.751 0 011.025.274zm-22.953 1.733a.75.75 0 01.971.429l.035.09a.75.75 0 01-1.393.555 3.212 3.212 0 01-.041-.104.75.75 0 01.428-.97zm18.581.791a.75.75 0 01-.274 1.025l-.086.049a.749.749 0 11-.75-1.299l.086-.049a.75.75 0 011.024.274zm-4.371 2.524a.751.751 0 01-.274 1.025l-.043.025-.002.001-.047.027a.75.75 0 01-.743-1.303l.042-.024.001-.001.042-.024a.75.75 0 011.024.274zm-11.351 1.003a.751.751 0 011.026-.271l.079.046a.75.75 0 11-.735 1.307l-.099-.056a.751.751 0 01-.271-1.026zm6.563 1.087a.75.75 0 01-.624.858l-.109.016a.75.75 0 11-.219-1.483l.095-.015a.75.75 0 01.857.624z" fill="#04F"/><path d="M482.42 184.945l-32.418-18.832c-4.836-2.88-11.554-2.511-19.012 1.772a43.267 43.267 0 00-7.014 5.17l-13.066-7.57c-7.162-5.021-17.536-4.796-29.091 1.847-14.767 8.456-27.356 25.071-34.112 42.648a15.833 15.833 0 00-7.383 2.326 38.147 38.147 0 00-17.277 29.946c-.018.22-.018.441 0 .661a20.65 20.65 0 00-8.897 2.991A48.821 48.821 0 00292 284.16c0 7.016 2.436 11.927 6.387 14.253l31.97 18.465 7.014-33.601 93.401-53.949a59.777 59.777 0 0025.436-36.26l26.212-8.123z" fill="#2C3548"/><path d="M463.075 186.533a46.857 46.857 0 00-11.667 9.855c-4.909-15.73-19.824-20.604-37.507-10.413-14.767 8.456-27.356 25.035-34.112 42.648-2.614.159-5.15.958-7.383 2.326a38.219 38.219 0 00-17.278 29.909v.702a21.022 21.022 0 00-8.896 2.954 48.806 48.806 0 00-22.151 38.289c0 14.105 9.857 19.791 22.151 12.735L463 248.114a59.084 59.084 0 0026.692-46.185c.074-16.984-11.887-23.889-26.617-15.396z" fill="#242B38"/><path d="M385.96 261.764l-2.289 5.375-2.289-2.731L378 266.36l5.671 6.767 5.671-13.315-3.382 1.952zm25.856-14.911l-3.443 1.988v4.355c-.064.889.069 1.668.384 2.26.25.278.771.175 1.564-.283.248-.143.771-.494 1.495-.987v2.878a27.635 27.635 0 01-2.9 1.872c-2.175 1.256-3.715.607-3.715-2.098v-13.647l3.172-1.831v4.22l3.443-1.988v3.261zm10.171-5.872v6.948l-2.835 1.637c-.798.461-1.563.537-2.127.211-.565-.326-.882-1.027-.882-1.948s.317-1.988.882-2.965c.564-.978 1.329-1.786 2.127-2.246l2.835-1.637zm2.836-4.9l-5.671 3.275c-1.548.893-3.032 2.46-4.126 4.355-1.094 1.895-1.709 3.963-1.709 5.75s.615 3.145 1.709 3.777c1.094.632 2.578.485 4.126-.409l5.671-3.274v-13.474zm10.2 2.935a7.265 7.265 0 01-1.064 1.635 5.394 5.394 0 01-1.347 1.144l-.329.19c-.798.461-1.563.536-2.127.211-.564-.326-.881-1.027-.881-1.948 0-.922.317-1.988.881-2.966.564-.977 1.329-1.785 2.127-2.246l.329-.19c.468-.269.929-.41 1.347-.411.418-.001.783.139 1.064.407l2.382-3.155c-.54-.575-1.258-.884-2.093-.902-.834-.018-1.76.257-2.7.8l-.329.19c-1.547.893-3.031 2.46-4.125 4.355-1.094 1.895-1.709 3.963-1.709 5.75s.615 3.145 1.709 3.777c1.094.632 2.578.485 4.125-.409l.329-.189c.94-.542 1.866-1.337 2.701-2.319a14.112 14.112 0 002.092-3.32l-2.382-.404zm11.431-10.164l4.555 5.585-3.49 2.014-3.148-3.691-2.379 3.88v3.003l-3.15 1.819v-17.696l3.15-1.819v10.001l5.256-8.816 3.693-2.132-4.487 7.852zm-44.193 25.217c-1.336-.158-2.812.063-4.35.651-2.559.858-3.535.875-3.535-.314 0-1.116.929-2.421 2.539-3.35 1.592-.891 3.167-1.437 4.647-1.613l1.512-3.555.025-.065c-1.938.183-4.017.902-6.117 2.116-1.537.8-3.054 2.192-4.305 3.95a9.592 9.592 0 00-1.193 2.365c-.276.82-.41 1.625-.393 2.349-.017.896.209 1.635.644 2.115.435.479 1.058.673 1.781.555 1.126-.09 2.304-.362 3.51-.812 2.471-.805 3.4-.771 3.4.346 0 1.292-1.043 2.587-2.787 3.594a18.999 18.999 0 01-2.855 1.375 9.075 9.075 0 01-2.424.478l-1.472 3.458a11.91 11.91 0 003.193-.502 19.768 19.768 0 003.445-1.667c1.588-.82 3.16-2.224 4.485-4.004a9.723 9.723 0 001.281-2.464c.297-.86.441-1.706.419-2.462.033-.68-.083-1.271-.337-1.717-.255-.446-.638-.731-1.113-.827z" fill="#101827" fill-opacity=".8"/></g><defs><clipPath id="clip0"><path fill="#fff" d="M0 0h580v320H0z"/></clipPath></defs></svg>