<svg xmlns="http://www.w3.org/2000/svg" width="137.578" height="36" viewBox="0 0 137.578 36"><g transform="translate(45.802 3.203)"><path d="M.383-7.844a3.229,3.229,0,0,1,.266-1.3,3.432,3.432,0,0,1,.723-1.066,3.432,3.432,0,0,1,1.066-.723,3.229,3.229,0,0,1,1.3-.266H8.883v2.242H3.742a1.111,1.111,0,0,0-.437.086,1.108,1.108,0,0,0-.355.238,1.108,1.108,0,0,0-.238.355,1.111,1.111,0,0,0-.086.438,1.14,1.14,0,0,0,.086.441,1.1,1.1,0,0,0,.238.359A1.108,1.108,0,0,0,3.3-6.8a1.111,1.111,0,0,0,.438.086H5.984a3.3,3.3,0,0,1,1.309.262,3.365,3.365,0,0,1,1.07.719,3.365,3.365,0,0,1,.719,1.07,3.3,3.3,0,0,1,.262,1.309,3.271,3.271,0,0,1-.262,1.3A3.377,3.377,0,0,1,8.363-.988a3.419,3.419,0,0,1-1.07.723A3.257,3.257,0,0,1,5.984,0H1.008V-2.242H5.984a1.111,1.111,0,0,0,.438-.086,1.108,1.108,0,0,0,.355-.238,1.108,1.108,0,0,0,.238-.355A1.111,1.111,0,0,0,7.1-3.359,1.111,1.111,0,0,0,7.016-3.8a1.108,1.108,0,0,0-.238-.355,1.108,1.108,0,0,0-.355-.238,1.111,1.111,0,0,0-.437-.086H3.742a3.229,3.229,0,0,1-1.3-.266,3.432,3.432,0,0,1-1.066-.723,3.419,3.419,0,0,1-.723-1.07A3.257,3.257,0,0,1,.383-7.844ZM25.18,0H17.5V-11.2h7.68v2.242H19.743v2.242h3.68v2.242h-3.68v2.234H25.18Zm10.5-8.961v4.484h2.242a2.16,2.16,0,0,0,.867-.176,2.27,2.27,0,0,0,.711-.48,2.257,2.257,0,0,0,.48-.715,2.188,2.188,0,0,0,.176-.871,2.188,2.188,0,0,0-.176-.871A2.257,2.257,0,0,0,39.5-8.3a2.27,2.27,0,0,0-.711-.48,2.16,2.16,0,0,0-.867-.176Zm0,8.961H33.438V-11.2h4.484a4.372,4.372,0,0,1,1.188.16,4.457,4.457,0,0,1,1.066.453,4.547,4.547,0,0,1,.906.7,4.5,4.5,0,0,1,.7.91,4.53,4.53,0,0,1,.453,1.07,4.372,4.372,0,0,1,.16,1.188,4.384,4.384,0,0,1-.145,1.125,4.6,4.6,0,0,1-.414,1.039,4.387,4.387,0,0,1-.66.906,4.469,4.469,0,0,1-.875.719L41.548,0H39.165l-.977-2.258-2.508.016ZM59.119-11.2,55.439,0H53.2L49.533-11.2H52.08l2.234,7.477L56.556-11.2ZM74.557,0h-7.68V-11.2h7.68v2.242H69.119v2.242H72.8v2.242h-3.68v2.234h5.438Zm10.5-8.961v4.484H87.3a2.16,2.16,0,0,0,.867-.176,2.27,2.27,0,0,0,.711-.48,2.257,2.257,0,0,0,.48-.715,2.188,2.188,0,0,0,.176-.871,2.188,2.188,0,0,0-.176-.871,2.257,2.257,0,0,0-.48-.715,2.27,2.27,0,0,0-.711-.48,2.16,2.16,0,0,0-.867-.176Zm0,8.961H82.815V-11.2H87.3a4.372,4.372,0,0,1,1.188.16,4.457,4.457,0,0,1,1.066.453,4.547,4.547,0,0,1,.906.7,4.5,4.5,0,0,1,.7.91,4.53,4.53,0,0,1,.453,1.07,4.371,4.371,0,0,1,.16,1.188,4.384,4.384,0,0,1-.145,1.125,4.6,4.6,0,0,1-.414,1.039,4.387,4.387,0,0,1-.66.906,4.469,4.469,0,0,1-.875.719L90.924,0H88.542l-.977-2.258-2.508.016Z" transform="translate(0 13)" fill="#1d2330"/><path d="M.287-5.883a2.422,2.422,0,0,1,.2-.979,2.574,2.574,0,0,1,.542-.8,2.574,2.574,0,0,1,.8-.542,2.422,2.422,0,0,1,.979-.2H6.662v1.682H2.807a.833.833,0,0,0-.328.064.831.831,0,0,0-.267.179.831.831,0,0,0-.179.267.833.833,0,0,0-.064.328.855.855,0,0,0,.064.331.823.823,0,0,0,.179.27.831.831,0,0,0,.267.179.833.833,0,0,0,.328.064H4.488a2.474,2.474,0,0,1,.981.2,2.524,2.524,0,0,1,.8.539,2.524,2.524,0,0,1,.539.8,2.474,2.474,0,0,1,.2.981,2.453,2.453,0,0,1-.2.979,2.533,2.533,0,0,1-.539.8,2.565,2.565,0,0,1-.8.542,2.443,2.443,0,0,1-.981.2H.756V-1.682H4.488a.833.833,0,0,0,.328-.064.831.831,0,0,0,.267-.179.831.831,0,0,0,.179-.267.833.833,0,0,0,.064-.328.833.833,0,0,0-.064-.328.831.831,0,0,0-.179-.267.831.831,0,0,0-.267-.179.833.833,0,0,0-.328-.064H2.807a2.422,2.422,0,0,1-.979-.2,2.574,2.574,0,0,1-.8-.542,2.565,2.565,0,0,1-.542-.8A2.443,2.443,0,0,1,.287-5.883Zm14.04-.838v3.363h1.682a1.62,1.62,0,0,0,.65-.132,1.7,1.7,0,0,0,.533-.36,1.693,1.693,0,0,0,.36-.536,1.641,1.641,0,0,0,.132-.653,1.641,1.641,0,0,0-.132-.653,1.693,1.693,0,0,0-.36-.536,1.7,1.7,0,0,0-.533-.36,1.62,1.62,0,0,0-.65-.132Zm0,6.721H12.645V-8.4h3.363a3.279,3.279,0,0,1,.891.12,3.342,3.342,0,0,1,.8.34,3.41,3.41,0,0,1,.68.527,3.373,3.373,0,0,1,.527.683,3.4,3.4,0,0,1,.34.8,3.279,3.279,0,0,1,.12.891,3.261,3.261,0,0,1-.264,1.3,3.4,3.4,0,0,1-.721,1.069,3.4,3.4,0,0,1-1.069.721,3.261,3.261,0,0,1-1.3.264H14.327Zm15.5-3.357V-5.039a1.641,1.641,0,0,0-.132-.653,1.693,1.693,0,0,0-.36-.536,1.693,1.693,0,0,0-.536-.36,1.641,1.641,0,0,0-.653-.132,1.641,1.641,0,0,0-.653.132,1.693,1.693,0,0,0-.536.36,1.693,1.693,0,0,0-.36.536,1.641,1.641,0,0,0-.132.653v1.682ZM31.513,0H29.832V-1.682H26.468V0H24.793V-5.039a3.276,3.276,0,0,1,.264-1.31,3.42,3.42,0,0,1,.718-1.069,3.36,3.36,0,0,1,1.066-.721A3.276,3.276,0,0,1,28.15-8.4a3.276,3.276,0,0,1,1.31.264,3.4,3.4,0,0,1,1.069.721,3.4,3.4,0,0,1,.721,1.069,3.276,3.276,0,0,1,.264,1.31Zm12.7-.861A4.28,4.28,0,0,1,42.9-.088,4.3,4.3,0,0,1,41.4.182,4.244,4.244,0,0,1,40.248.026a4.359,4.359,0,0,1-1.037-.439,4.386,4.386,0,0,1-.882-.683,4.386,4.386,0,0,1-.683-.882,4.359,4.359,0,0,1-.439-1.037,4.244,4.244,0,0,1-.155-1.151,4.276,4.276,0,0,1,.155-1.154,4.347,4.347,0,0,1,.439-1.04,4.386,4.386,0,0,1,.683-.882,4.386,4.386,0,0,1,.882-.683,4.359,4.359,0,0,1,1.037-.439A4.244,4.244,0,0,1,41.4-8.52a4.338,4.338,0,0,1,1.506.267,4.175,4.175,0,0,1,1.313.776l-.891,1.465a2.517,2.517,0,0,0-.873-.612A2.672,2.672,0,0,0,41.4-6.838a2.592,2.592,0,0,0-1.043.211,2.744,2.744,0,0,0-.85.571,2.675,2.675,0,0,0-.574.85,2.6,2.6,0,0,0-.211,1.04,2.557,2.557,0,0,0,.211,1.034,2.728,2.728,0,0,0,.574.847,2.719,2.719,0,0,0,.85.574A2.592,2.592,0,0,0,41.4-1.5a2.672,2.672,0,0,0,1.055-.214,2.517,2.517,0,0,0,.873-.612ZM55.486,0h-5.76V-8.4h5.76v1.682H51.408v1.682h2.76v1.682h-2.76v1.676h4.078Z" transform="translate(0 28.053)" fill="#fdc201"/></g><path d="M18,0A18,18,0,1,0,36,18,18.05,18.05,0,0,0,18,0ZM7.316,7.418a15.05,15.05,0,0,1,21.369,0,12.906,12.906,0,0,1,2.406,3.264H16.845a4.076,4.076,0,0,0-1.829.4,3.8,3.8,0,0,0-1.444.989,3.921,3.921,0,0,0-.963,1.484,3.968,3.968,0,0,0-.385,1.78,3.7,3.7,0,0,0,.385,1.78,3.921,3.921,0,0,0,.963,1.484,4.732,4.732,0,0,0,1.444.989,5.5,5.5,0,0,0,1.829.4h3.08a1.192,1.192,0,0,1,.578.1,2.094,2.094,0,0,1,.481.3.845.845,0,0,1,.289.495,1.877,1.877,0,0,1,0,1.187,2.174,2.174,0,0,1-.289.495c-.1.1-.289.3-.481.3a1.192,1.192,0,0,1-.578.1H3.754A13.654,13.654,0,0,1,2.888,18,14.8,14.8,0,0,1,7.316,7.418ZM28.684,28.681a15.05,15.05,0,0,1-21.369,0,16.1,16.1,0,0,1-2.021-2.473H19.925a4.076,4.076,0,0,0,1.829-.4,3.8,3.8,0,0,0,1.444-.989,3.921,3.921,0,0,0,.963-1.484,3.968,3.968,0,0,0,.385-1.78,3.7,3.7,0,0,0-.385-1.78A3.921,3.921,0,0,0,23.2,18.3a4.732,4.732,0,0,0-1.444-.989,4.227,4.227,0,0,0-1.829-.495h-3.08a1.192,1.192,0,0,1-.578-.1,2.094,2.094,0,0,1-.481-.3.845.845,0,0,1-.289-.495,1.285,1.285,0,0,1-.1-.593,1.285,1.285,0,0,1,.1-.593,2.174,2.174,0,0,1,.289-.495c.1-.1.289-.3.481-.3a1.192,1.192,0,0,1,.578-.1H32.439a15.623,15.623,0,0,1,.578,4.253A15.111,15.111,0,0,1,28.684,28.681Z" fill="#fdc201"/></svg>